<svg xmlns="http://www.w3.org/2000/svg" viewBox="0 0 1600 1000" width="1600" height="1000" fill="none">
  <defs>
    
    <linearGradient id="sky" x1="0" y1="0" x2="0" y2="1">
      <stop offset="0" stop-color="#1a1326"></stop>
      <stop offset="0.42" stop-color="#2c1d36"></stop>
      <stop offset="0.66" stop-color="#5a2c45"></stop>
      <stop offset="0.82" stop-color="#8a3c54"></stop>
      <stop offset="0.95" stop-color="#c25068"></stop>
    </linearGradient>
    <radialGradient id="sunset" cx="0.74" cy="0.82" r="0.55">
      <stop offset="0" stop-color="#ffb37a" stop-opacity="0.85"></stop>
      <stop offset="0.35" stop-color="#ff7a8c" stop-opacity="0.45"></stop>
      <stop offset="1" stop-color="#ff2e74" stop-opacity="0"></stop>
    </radialGradient>
    <linearGradient id="lawn" x1="0" y1="0" x2="0" y2="1">
      <stop offset="0" stop-color="#23301f"></stop>
      <stop offset="1" stop-color="#0d130b"></stop>
    </linearGradient>
    <linearGradient id="wall" x1="0" y1="0" x2="1" y2="0">
      <stop offset="0" stop-color="#cdbfae"></stop>
      <stop offset="0.5" stop-color="#b6a692"></stop>
      <stop offset="1" stop-color="#8f8270"></stop>
    </linearGradient>
    <linearGradient id="wallShade" x1="0" y1="0" x2="1" y2="0">
      <stop offset="0" stop-color="#6f6353"></stop>
      <stop offset="1" stop-color="#564c3f"></stop>
    </linearGradient>
    <linearGradient id="roof" x1="0" y1="0" x2="0" y2="1">
      <stop offset="0" stop-color="#3a2b33"></stop>
      <stop offset="1" stop-color="#241a20"></stop>
    </linearGradient>
    <linearGradient id="win" x1="0" y1="0" x2="0" y2="1">
      <stop offset="0" stop-color="#ffe6ac"></stop>
      <stop offset="1" stop-color="#ffae5c"></stop>
    </linearGradient>
    <radialGradient id="winGlow" cx="0.5" cy="0.5" r="0.7">
      <stop offset="0" stop-color="#ffd27a" stop-opacity="0.9"></stop>
      <stop offset="1" stop-color="#ffd27a" stop-opacity="0"></stop>
    </radialGradient>
    <linearGradient id="drive" x1="0" y1="0" x2="0" y2="1">
      <stop offset="0" stop-color="#2a2530"></stop>
      <stop offset="1" stop-color="#15121a"></stop>
    </linearGradient>
    <filter id="soft" x="-20%" y="-20%" width="140%" height="140%">
      <feGaussianBlur stdDeviation="6"></feGaussianBlur>
    </filter>
  </defs>

  
  <rect width="1600" height="820" fill="url(#sky)"></rect>
  <rect width="1600" height="820" fill="url(#sunset)"></rect>
  
  <g fill="#ffffff">
    <circle cx="180" cy="90" r="1.6" opacity="0.7"></circle>
    <circle cx="320" cy="150" r="1.1" opacity="0.5"></circle>
    <circle cx="520" cy="70" r="1.4" opacity="0.6"></circle>
    <circle cx="900" cy="110" r="1.2" opacity="0.55"></circle>
    <circle cx="1180" cy="80" r="1.5" opacity="0.6"></circle>
    <circle cx="1380" cy="140" r="1.1" opacity="0.5"></circle>
    <circle cx="1480" cy="60" r="1.3" opacity="0.55"></circle>
    <circle cx="700" cy="160" r="1" opacity="0.4"></circle>
  </g>

  
  <path d="M0 560 Q120 500 240 540 T480 520 T760 545 T1040 515 T1320 540 T1600 520 V820 H0 Z" fill="#1c1626" opacity="0.85"></path>
  <path d="M0 600 Q160 560 300 590 T620 575 T940 600 T1280 575 T1600 595 V820 H0 Z" fill="#140f1d" opacity="0.9"></path>

  
  <rect x="0" y="700" width="1600" height="300" fill="url(#lawn)"></rect>

  
  <ellipse cx="880" cy="772" rx="520" ry="42" fill="#000000" opacity="0.55" filter="url(#soft)"></ellipse>

  
  <path d="M980 720 L1230 720 L1480 1000 L760 1000 Z" fill="url(#drive)"></path>
  <g stroke="#000" stroke-opacity="0.35" stroke-width="3">
    <line x1="1052" y1="720" x2="980" y2="1000"></line>
    <line x1="1124" y1="720" x2="1200" y2="1000"></line>
    <line x1="1196" y1="720" x2="1420" y2="1000"></line>
  </g>

  
  
  <g>
    <rect x="470" y="540" width="250" height="195" fill="url(#wallShade)"></rect>
    <path d="M455 540 L595 470 L735 540 Z" fill="url(#roof)"></path>
    <rect x="505" y="585" width="180" height="150" fill="#1d171f"></rect>
    <g stroke="#3a3038" stroke-width="3">
      <line x1="505" y1="625" x2="685" y2="625"></line>
      <line x1="505" y1="665" x2="685" y2="665"></line>
      <line x1="505" y1="705" x2="685" y2="705"></line>
    </g>
  </g>

  
  <g>
    
    <path d="M1080 735 V360 L1210 430 V735 Z" fill="url(#wallShade)"></path>
    
    <rect x="700" y="360" width="380" height="375" fill="url(#wall)"></rect>
    
    <path d="M672 360 L890 250 L1108 360 Z" fill="url(#roof)"></path>
    <path d="M1080 360 L890 250 L1210 430 L1210 430 Z" fill="#1d141a"></path>
    
    <rect x="700" y="540" width="380" height="8" fill="#7a6e5d"></rect>
    
    <rect x="672" y="356" width="436" height="10" fill="#2a1f26"></rect>
  </g>

  
  <g>
    
    <rect x="715" y="375" width="155" height="155" fill="url(#winGlow)" opacity="0.5"></rect>
    <rect x="745" y="405" width="95" height="95" fill="url(#win)"></rect>
    <rect x="940" y="405" width="95" height="95" fill="url(#win)" opacity="0.85"></rect>
    <g stroke="#a8895a" stroke-width="3">
      <rect x="745" y="405" width="95" height="95" fill="none"></rect>
      <line x1="792" y1="405" x2="792" y2="500"></line>
      <line x1="745" y1="452" x2="840" y2="452"></line>
      <rect x="940" y="405" width="95" height="95" fill="none"></rect>
      <line x1="987" y1="405" x2="987" y2="500"></line>
      <line x1="940" y1="452" x2="1035" y2="452"></line>
    </g>
    
    <rect x="745" y="585" width="150" height="120" fill="url(#win)" opacity="0.6"></rect>
    <g stroke="#a8895a" stroke-width="3">
      <rect x="745" y="585" width="150" height="120" fill="none"></rect>
      <line x1="820" y1="585" x2="820" y2="705"></line>
    </g>
    
    <rect x="960" y="600" width="80" height="135" fill="#2a2029"></rect>
    <rect x="960" y="600" width="80" height="135" fill="none" stroke="#7a6e5d" stroke-width="3"></rect>
    <circle cx="1000" cy="585" r="20" fill="url(#winGlow)" opacity="0.8"></circle>
    <circle cx="1000" cy="585" r="4" fill="#ffd27a"></circle>
  </g>

  
  
  <g>
    <rect x="120" y="690" width="360" height="14" fill="#2a2230"></rect>
    <g fill="#1c1722">
      <rect x="140" y="704" width="14" height="48"></rect>
      <rect x="220" y="704" width="14" height="48"></rect>
      <rect x="300" y="704" width="14" height="48"></rect>
      <rect x="380" y="704" width="14" height="48"></rect>
      <rect x="450" y="704" width="14" height="48"></rect>
    </g>
  </g>

  
  <g>
    <rect x="252" y="560" width="16" height="150" fill="#1a130f"></rect>
    <circle cx="260" cy="540" r="78" fill="#1f2a1a"></circle>
    <circle cx="215" cy="565" r="55" fill="#243017"></circle>
    <circle cx="305" cy="560" r="60" fill="#1b2615"></circle>
    <circle cx="260" cy="505" r="58" fill="#2a371f"></circle>
    <circle cx="245" cy="540" r="40" fill="#33421f" opacity="0.7"></circle>
  </g>

  
  <g>
    <ellipse cx="640" cy="730" rx="60" ry="34" fill="#202b18"></ellipse>
    <ellipse cx="700" cy="738" rx="45" ry="26" fill="#26331c"></ellipse>
    <ellipse cx="1100" cy="735" rx="70" ry="36" fill="#1e2917"></ellipse>
    <ellipse cx="1160" cy="742" rx="48" ry="26" fill="#26331c"></ellipse>
  </g>

  
  <g>
    <circle cx="930" cy="760" r="16" fill="url(#winGlow)" opacity="0.7"></circle>
    <circle cx="930" cy="760" r="3" fill="#ffd27a"></circle>
    <circle cx="1010" cy="850" r="18" fill="url(#winGlow)" opacity="0.6"></circle>
    <circle cx="1010" cy="850" r="3" fill="#ffd27a"></circle>
  </g>

  
  <rect width="900" height="1000" fill="#0a090b" opacity="0.18"></rect>
</svg>