<svg xmlns="http://www.w3.org/2000/svg" viewBox="0 0 1600 1000" width="1600" height="1000" fill="none">
  <defs>
    <linearGradient id="sky" x1="0" y1="0" x2="0" y2="1">
      <stop offset="0" stop-color="#141016"></stop>
      <stop offset="0.55" stop-color="#0e0c10"></stop>
      <stop offset="1" stop-color="#0a090b"></stop>
    </linearGradient>
    <radialGradient id="glow" cx="0.78" cy="0.16" r="0.6">
      <stop offset="0" stop-color="#ff2e74" stop-opacity="0.38"></stop>
      <stop offset="0.5" stop-color="#ff2e74" stop-opacity="0.08"></stop>
      <stop offset="1" stop-color="#ff2e74" stop-opacity="0"></stop>
    </radialGradient>
    <radialGradient id="glow2" cx="0.12" cy="0.9" r="0.5">
      <stop offset="0" stop-color="#ff2e74" stop-opacity="0.16"></stop>
      <stop offset="1" stop-color="#ff2e74" stop-opacity="0"></stop>
    </radialGradient>
    <linearGradient id="winlit" x1="0" y1="0" x2="0" y2="1">
      <stop offset="0" stop-color="#ffd98a" stop-opacity="0.95"></stop>
      <stop offset="1" stop-color="#ff9e57" stop-opacity="0.8"></stop>
    </linearGradient>
    <pattern id="grid" width="50" height="50" patternUnits="userSpaceOnUse">
      <path d="M50 0H0V50" stroke="#ffffff" stroke-opacity="0.035" stroke-width="1"></path>
    </pattern>
  </defs>

  
  <rect width="1600" height="1000" fill="url(#sky)"></rect>
  <rect width="1600" height="1000" fill="url(#grid)"></rect>
  <rect width="1600" height="1000" fill="url(#glow)"></rect>
  <rect width="1600" height="1000" fill="url(#glow2)"></rect>

  
  <g fill="#ffffff" fill-opacity="0.03">
    <rect x="60" y="430" width="90" height="220"></rect>
    <rect x="170" y="380" width="70" height="270"></rect>
    <rect x="1360" y="400" width="80" height="250"></rect>
    <rect x="1460" y="350" width="90" height="300"></rect>
  </g>

  
  <rect x="0" y="640" width="1600" height="360" fill="#0b0a0d"></rect>
  <line x1="0" y1="640" x2="1600" y2="640" stroke="#ff2e74" stroke-opacity="0.5" stroke-width="2"></line>

  
  <g stroke="#f3f1ee" stroke-opacity="0.85" stroke-width="2.4" stroke-linejoin="round">
    
    <path d="M560 640 V300 H1050 V640" fill="#13121a" fill-opacity="0.6"></path>
    
    <path d="M520 300 L805 170 L1090 300 Z" fill="#15131c" fill-opacity="0.7"></path>
    
    <line x1="560" y1="455" x2="1050" y2="455"></line>
    
    <path d="M1050 640 V470 H1300 V640" fill="#121017" fill-opacity="0.6"></path>
    <line x1="1050" y1="470" x2="1300" y2="470"></line>
  </g>

  
  <g>
    <rect x="610" y="340" width="80" height="90" fill="url(#winlit)" opacity="0.9"></rect>
    <rect x="720" y="340" width="80" height="90" fill="url(#winlit)" opacity="0.55"></rect>
    <rect x="910" y="340" width="80" height="90" fill="url(#winlit)" opacity="0.8"></rect>
    <rect x="640" y="510" width="120" height="110" fill="url(#winlit)" opacity="0.45" rx="2"></rect>
    
    <rect x="850" y="500" width="80" height="140" fill="#1c1a22" stroke="#f3f1ee" stroke-opacity="0.7" stroke-width="2"></rect>
    
    <g stroke="#f3f1ee" stroke-opacity="0.4" stroke-width="1.6">
      <rect x="1085" y="510" width="180" height="130" fill="#16141c"></rect>
      <line x1="1085" y1="550" x2="1265" y2="550"></line>
      <line x1="1085" y1="595" x2="1265" y2="595"></line>
    </g>
  </g>

  
  
  <g stroke="#ff2e74" stroke-opacity="0.5" stroke-width="2">
    <path d="M560 640 L360 1000 M1300 640 L1480 1000" stroke-opacity="0.35"></path>
    <path d="M700 700 L520 1000 M1160 700 L1320 1000" stroke-opacity="0.25"></path>
    <line x1="430" y1="720" x2="1430" y2="720" stroke-opacity="0.28"></line>
    <line x1="360" y1="820" x2="1480" y2="820" stroke-opacity="0.22"></line>
    <line x1="300" y1="930" x2="1540" y2="930" stroke-opacity="0.16"></line>
  </g>

  
  <g stroke="#f3f1ee" stroke-opacity="0.7" stroke-width="2.4">
    <rect x="180" y="600" width="220" height="44" fill="#14121a"></rect>
    
    <g stroke="#ff2e74" stroke-opacity="0.85" stroke-width="2.6">
      <rect x="1300" y="560" width="20" height="84" fill="none"></rect>
      <rect x="1430" y="560" width="20" height="84" fill="none"></rect>
      <line x1="1340" y1="566" x2="1340" y2="640"></line>
      <line x1="1370" y1="566" x2="1370" y2="640"></line>
      <line x1="1400" y1="566" x2="1400" y2="640"></line>
      <line x1="1320" y1="580" x2="1430" y2="580"></line>
      <line x1="1320" y1="622" x2="1430" y2="622"></line>
    </g>
  </g>

  
  <g>
    <rect x="452" y="560" width="10" height="80" fill="#f3f1ee" fill-opacity="0.4"></rect>
    <circle cx="457" cy="540" r="46" fill="#ff2e74" fill-opacity="0.14" stroke="#ff2e74" stroke-opacity="0.5" stroke-width="2"></circle>
  </g>

  
  <g stroke="#ffffff" stroke-opacity="0.18" stroke-width="2">
    <line x1="540" y1="290" x2="540" y2="640"></line>
    <line x1="500" y1="290" x2="500" y2="640"></line>
    <line x1="500" y1="360" x2="540" y2="360"></line>
    <line x1="500" y1="470" x2="540" y2="470"></line>
    <line x1="500" y1="560" x2="540" y2="560"></line>
    <line x1="490" y1="340" x2="550" y2="320"></line>
  </g>

  
  <g stroke="#ff2e74" stroke-opacity="0.55" stroke-width="1.6" fill="#ff2e74" fill-opacity="0.7" font-family="monospace" font-size="20">
    <line x1="560" y1="250" x2="1050" y2="250"></line>
    <line x1="560" y1="242" x2="560" y2="258"></line>
    <line x1="1050" y1="242" x2="1050" y2="258"></line>
    <text x="772" y="240" fill="#ff5c92" fill-opacity="0.85">EXTERIOR / 外構</text>
  </g>
  <g font-family="monospace" font-size="18" fill="#ffffff" fill-opacity="0.22">
    <text x="80" y="120">MATSUDO SOKEN — DESIGN BUILD</text>
  </g>
</svg>